<svg width="800" height="450" viewBox="0 0 800 450" fill="none" xmlns="http://www.w3.org/2000/svg">
  <defs>
    <linearGradient id="bg2" x1="0" y1="0" x2="1" y2="1">
      <stop offset="0%" stop-color="#F8FAFC"/>
      <stop offset="100%" stop-color="#ECFDF5"/>
    </linearGradient>
  </defs>
  <rect width="800" height="450" rx="24" fill="url(#bg2)"/>
  <rect x="40" y="32" width="150" height="12" rx="6" fill="#10B981"/>
  <rect x="640" y="32" width="120" height="12" rx="6" fill="#94A3B8"/>
  <rect x="40" y="60" width="720" height="2" fill="#CBD5E1"/>
  <rect x="40" y="84" width="520" height="14" rx="7" fill="#0F172A"/>
  <rect x="40" y="108" width="420" height="10" rx="5" fill="#94A3B8"/>
  <rect x="40" y="136" width="480" height="110" rx="12" fill="#FFFFFF" stroke="#D1D5DB"/>
  <rect x="56" y="154" width="180" height="10" rx="5" fill="#E2E8F0"/>
  <rect x="56" y="172" width="300" height="10" rx="5" fill="#E2E8F0"/>
  <rect x="56" y="190" width="260" height="10" rx="5" fill="#E2E8F0"/>
  <rect x="560" y="136" width="200" height="110" rx="12" fill="#FFFFFF" stroke="#D1D5DB"/>
  <rect x="576" y="154" width="120" height="10" rx="5" fill="#DCFCE7"/>
  <rect x="576" y="172" width="150" height="10" rx="5" fill="#E2E8F0"/>
  <rect x="576" y="190" width="100" height="10" rx="5" fill="#E2E8F0"/>
  <rect x="40" y="274" width="720" height="144" rx="12" fill="#FFFFFF" stroke="#D1D5DB"/>
  <rect x="56" y="294" width="180" height="10" rx="5" fill="#DCFCE7"/>
  <rect x="56" y="316" width="680" height="8" rx="4" fill="#E2E8F0"/>
  <rect x="56" y="332" width="620" height="8" rx="4" fill="#E2E8F0"/>
  <rect x="56" y="348" width="660" height="8" rx="4" fill="#E2E8F0"/>
</svg>
